<?xml version="1.0" standalone="no"?>
<!DOCTYPE svg PUBLIC "-//W3C//DTD SVG 20010904//EN"
 "http://www.w3.org/TR/2001/REC-SVG-20010904/DTD/svg10.dtd">
<svg version="1.0" xmlns="http://www.w3.org/2000/svg"
 width="153.000000pt" height="153.000000pt" viewBox="0 0 153.000000 153.000000"
 preserveAspectRatio="xMidYMid meet">
<metadata>
Created by potrace 1.11, written by Peter Selinger 2001-2013
</metadata>
<g transform="translate(0.000000,153.000000) scale(0.100000,-0.100000)"
fill="#000000" stroke="none">
<path d="M460 1104 c0 -6 -23 -16 -50 -22 -28 -7 -60 -21 -72 -32 -12 -11 -28
-18 -36 -15 -7 2 -11 1 -8 -4 3 -5 -5 -21 -18 -36 -23 -27 -51 -98 -62 -160
-3 -16 -11 -33 -17 -37 -9 -6 -9 -8 1 -8 7 0 12 -13 12 -31 0 -21 -4 -28 -12
-23 -10 6 -10 4 0 -8 7 -9 14 -35 16 -58 2 -23 9 -46 16 -50 7 -4 9 -13 5 -20
-5 -9 -4 -11 3 -6 7 4 12 2 12 -4 0 -7 15 -27 34 -45 19 -18 32 -36 29 -39 -4
-3 1 -6 9 -6 21 0 69 -26 62 -33 -3 -3 3 -3 15 0 12 3 21 1 21 -5 0 -6 9 -8
20 -5 13 3 20 0 20 -8 0 -10 3 -10 11 -2 7 7 20 8 33 4 43 -16 128 15 176 64
18 19 37 32 41 29 4 -2 11 1 15 7 4 8 3 9 -4 5 -18 -11 -14 11 5 33 15 19 17
19 31 3 8 -9 6 -4 -3 12 -9 16 -13 26 -8 23 5 -3 9 12 10 34 1 28 -3 39 -14
39 -9 0 -11 5 -7 13 5 7 0 6 -11 -3 -17 -14 -17 -13 -11 10 6 25 6 25 -5 3
-12 -23 -21 -25 -103 -27 -21 -1 -35 -10 -52 -35 -35 -52 -87 -52 -145 -1 -28
24 -31 31 -20 44 7 8 11 21 8 28 -3 8 -6 6 -6 -5 -1 -10 -6 -15 -11 -12 -8 5
-7 11 0 20 13 16 43 8 33 -9 -5 -8 -3 -8 8 0 8 7 27 12 42 12 22 0 27 -4 23
-17 -4 -11 -1 -10 9 4 14 17 17 18 25 5 7 -10 10 -11 10 -2 0 18 21 15 36 -5
12 -15 13 -15 8 -2 -4 13 1 16 28 16 18 -1 39 -8 46 -17 10 -13 11 -13 6 3 -5
14 0 17 27 19 19 0 39 2 44 3 6 2 15 3 21 4 7 1 9 16 7 39 -3 20 -5 48 -6 62
-1 14 -6 28 -10 31 -5 3 -9 12 -10 20 -2 8 -6 20 -10 27 -5 6 -5 12 0 12 4 0
-3 7 -15 16 -14 9 -21 22 -18 31 3 8 2 12 -3 9 -4 -3 -23 8 -42 25 -46 41
-149 86 -164 71 -3 -4 -10 0 -15 8 -6 8 -10 10 -10 4z m40 -174 c0 -5 3 -9 8
-9 4 1 16 1 26 0 18 -1 18 -3 -5 -28 -21 -24 -21 -25 -2 -9 12 10 29 16 38 13
36 -15 2 -40 -57 -42 -29 -1 -37 10 -15 18 9 4 9 6 -1 6 -7 1 -15 -6 -18 -14
-5 -12 -10 -13 -20 -4 -8 6 -14 8 -14 4 0 -4 -6 -2 -14 5 -17 13 -10 40 10 40
8 0 14 4 14 9 0 8 16 16 43 20 4 0 7 -3 7 -9z"/>
<path d="M480 921 c0 -6 4 -13 10 -16 6 -3 7 1 4 9 -7 18 -14 21 -14 7z"/>
<path d="M450 890 c0 -5 5 -10 10 -10 6 0 10 5 10 10 0 6 -4 10 -10 10 -5 0
-10 -4 -10 -10z"/>
<path d="M544 874 c-18 -14 -18 -15 4 -4 12 6 22 13 22 15 0 8 -5 6 -26 -11z"/>
<path d="M1106 1089 c2 -4 -7 -10 -21 -13 -14 -4 -25 -12 -25 -18 0 -6 -8 -20
-17 -30 -10 -11 -13 -19 -8 -18 22 5 27 -1 14 -17 -9 -10 -9 -14 -2 -10 7 5
16 -1 23 -13 6 -11 7 -20 3 -20 -4 0 -1 -5 7 -11 12 -9 11 -9 -5 -3 -11 4 -42
7 -70 8 -27 1 -53 6 -57 11 -5 7 -8 6 -8 0 0 -10 -13 -14 -57 -17 -7 -1 -10
-5 -7 -9 2 -4 -5 -10 -16 -14 -11 -4 -18 -10 -15 -15 3 -5 -5 -16 -17 -24 -12
-9 -19 -16 -15 -16 4 0 2 -10 -5 -22 -13 -25 -15 -30 -17 -54 0 -8 -4 -13 -8
-11 -16 10 -4 -185 11 -201 3 -3 -2 -11 -12 -19 -16 -12 -16 -13 2 -6 14 5 17
3 11 -7 -5 -8 -4 -11 3 -6 6 3 22 -4 35 -16 35 -32 50 -43 62 -44 12 0 65 -14
85 -21 8 -4 21 -5 29 -4 8 1 18 -3 22 -11 7 -11 9 -11 9 0 0 7 5 10 10 7 6 -4
7 -11 4 -17 -4 -7 -2 -8 5 -4 6 4 9 11 6 16 -3 4 3 7 12 5 10 -1 17 -9 15 -16
-2 -9 3 -8 15 4 15 13 22 14 33 4 8 -7 10 -7 7 -1 -5 8 11 14 47 18 42 6 56
12 66 32 7 13 17 24 22 24 5 0 6 5 3 10 -3 6 -1 10 4 10 6 0 10 3 9 8 -3 13
14 77 24 90 7 8 7 12 0 12 -6 0 -7 12 -3 33 4 17 7 44 7 60 -1 15 2 27 7 27 4
0 5 5 1 12 -11 18 -10 67 1 61 6 -3 4 0 -2 8 -7 7 -13 17 -13 22 0 4 6 5 13 1
8 -5 8 -2 -2 9 -7 9 -10 17 -5 17 4 0 3 5 -4 12 -16 16 -15 31 1 22 6 -4 4 2
-6 13 -9 11 -14 23 -11 26 4 4 2 13 -4 20 -6 7 -12 28 -14 45 -1 18 -6 32 -11
32 -5 0 -7 7 -4 14 4 11 1 13 -10 9 -10 -4 -14 -2 -10 4 4 7 -20 10 -72 9 -44
0 -77 -4 -75 -7z m26 -359 c24 -26 32 -78 14 -96 -19 -19 -98 -21 -124 -2 -12
8 -19 18 -15 21 3 4 1 7 -5 7 -7 0 -12 14 -12 30 0 17 5 30 11 30 5 0 8 4 5 9
-8 13 43 29 78 25 16 -2 38 -13 48 -24z"/>
<path d="M1090 729 c0 -5 5 -7 10 -4 6 3 10 8 10 11 0 2 -4 4 -10 4 -5 0 -10
-5 -10 -11z"/>
<path d="M1056 711 c-3 -5 2 -15 12 -22 15 -12 16 -12 5 2 -7 9 -10 19 -6 22
3 4 4 7 0 7 -3 0 -8 -4 -11 -9z"/>
<path d="M313 1065 c0 -8 4 -12 9 -9 5 3 6 10 3 15 -9 13 -12 11 -12 -6z"/>
<path d="M769 853 c-12 -14 -12 -16 0 -8 11 6 13 4 8 -9 -4 -9 -3 -15 2 -11 6
3 9 14 8 25 -2 24 -1 24 -18 3z"/>
<path d="M761 724 c0 -11 3 -14 6 -6 3 7 2 16 -1 19 -3 4 -6 -2 -5 -13z"/>
<path d="M614 719 c1 -7 10 -13 19 -15 9 -1 15 2 11 7 -3 5 -9 7 -14 4 -4 -3
-11 0 -13 5 -3 6 -4 5 -3 -1z"/>
<path d="M450 709 c0 -5 5 -7 10 -4 6 3 10 8 10 11 0 2 -4 4 -10 4 -5 0 -10
-5 -10 -11z"/>
<path d="M410 688 c0 -4 4 -8 9 -8 6 0 12 4 15 8 3 5 -1 9 -9 9 -8 0 -15 -4
-15 -9z"/>
<path d="M696 512 c-3 -5 1 -9 9 -9 8 0 12 4 9 9 -3 4 -7 8 -9 8 -2 0 -6 -4
-9 -8z"/>
<path d="M610 450 c0 -5 5 -10 11 -10 5 0 7 5 4 10 -3 6 -8 10 -11 10 -2 0 -4
-4 -4 -10z"/>
</g>
</svg>
